<?xml version="1.0" encoding="UTF-8"?>
<svg xmlns="http://www.w3.org/2000/svg" xmlns:xlink="http://www.w3.org/1999/xlink" width="504pt" height="504pt" viewBox="0 0 504 504" version="1.1">
<g id="surface1058">
<rect x="0" y="0" width="504" height="504" style="fill:rgb(100%,100%,100%);fill-opacity:1;stroke:none;"/>
<path style="fill:none;stroke-width:0.75;stroke-linecap:round;stroke-linejoin:round;stroke:rgb(0%,0%,0%);stroke-opacity:1;stroke-miterlimit:10;" d="M 257.828125 64.152344 L 263.902344 62.898438 L 263.902344 65.644531 L 262.648438 65.960938 L 261.6875 65.070312 L 262.066406 66.484375 L 260.863281 66.273438 L 261.394531 67.476562 L 262.507812 66.796875 L 262.117188 68.105469 L 262.964844 69.101562 L 263.332031 67.789062 L 266.785156 73.574219 L 267.558594 74.726562 L 266.496094 74.046875 L 267.519531 76.296875 L 269.9375 77.289062 L 268.660156 79.699219 L 268.914062 81.007812 L 271.039062 79.804688 L 270.378906 77.082031 L 272.40625 75.382812 L 273.621094 75.644531 L 272.203125 78.023438 L 273.859375 80.195312 L 275.847656 81.191406 L 276.074219 78.3125 L 280.605469 80.640625 L 278.921875 82.65625 L 280.238281 82.839844 L 281.957031 80.746094 L 284.351562 82.210938 L 285.347656 84.460938 L 287.828125 84.539062 L 288.5625 85.691406 L 287.363281 86.320312 L 287.097656 85.011719 L 285.882812 84.855469 L 286.4375 86.058594 L 285.324219 86.765625 L 287.589844 87.890625 L 288.210938 90.820312 L 290.890625 90.613281 L 288.777344 89.667969 L 288.285156 88.359375 L 290.714844 88.046875 L 292.421875 86.242188 L 293.21875 90.167969 L 294.207031 91.160156 L 293.082031 90.636719 L 293.941406 93.308594 L 295.863281 94.617188 L 295.347656 95.816406 L 297.34375 97.652344 L 297.472656 99.0625 L 296.15625 99.585938 L 296.929688 101.941406 L 298.15625 102.203125 L 298.609375 105.238281 L 297.445312 105.972656 L 296.308594 103.511719 L 295.066406 103.800781 L 293.398438 102.074219 L 293.105469 104.636719 L 296.992188 105.34375 L 296.105469 107.804688 L 296.980469 110.683594 L 299.039062 112.410156 L 298.574219 113.875 L 300.421875 115.34375 L 303.46875 119.320312 L 302.648438 120.417969 L 303.886719 120.628906 L 302.496094 122.800781 L 302.34375 124.316406 L 301.34375 123.269531 L 301.304688 127.457031 L 302.417969 128.296875 L 303.734375 127.457031 L 302.8125 128.558594 L 301.570312 128.140625 L 303.179688 133.371094 L 300.9375 133.425781 L 300.964844 131.90625 L 299.773438 132.324219 L 300.648438 133.53125 L 299.863281 134.785156 L 300.6875 136.09375 L 302.648438 134.472656 L 305.191406 134.839844 L 304.785156 137.507812 L 305.835938 134.863281 L 307.226562 137.324219 L 307.746094 135.859375 L 309.039062 136.015625 L 309.570312 137.535156 L 313.566406 138.5 L 314.605469 141.171875 L 315.605469 145.621094 L 319.628906 144.730469 L 320.261719 145.988281 L 318.945312 138.554688 L 317.300781 136.355469 L 318.984375 133.871094 L 317.65625 131.460938 L 318.425781 128.84375 L 315.1875 125.730469 L 316.667969 124.398438 L 319.820312 126.699219 L 319.703125 128.113281 L 320.855469 128.792969 L 321.503906 132.5625 L 325.082031 131.175781 L 326.246094 132.011719 L 323.832031 135.074219 L 326.234375 135.832031 L 327.109375 140.074219 L 326.285156 141.066406 L 327.449219 141.746094 L 326.941406 145.855469 L 329.171875 152.632812 L 329.070312 157.578125 L 329.890625 158.730469 L 331.183594 158.496094 L 331.082031 159.910156 L 333.585938 159.75 L 333.777344 161.058594 L 335.179688 160.957031 L 333.878906 158.601562 L 348.859375 167.183594 L 354.136719 169.722656 L 354.84375 170.875 L 357.035156 170.089844 L 360.816406 170.113281 L 366.765625 164.960938 L 369.042969 161.636719 L 371.523438 161.898438 L 371.941406 160.378906 L 375.140625 158.050781 L 380.546875 158.652344 L 382.378906 160.957031 L 386.355469 162.628906 L 384.089844 165.769531 L 382.558594 170.820312 L 381.734375 171.921875 L 382.378906 174.539062 L 381.304688 175.21875 L 381.53125 179.195312 L 381.695312 183.4375 L 379.039062 188.382812 L 376.128906 190.972656 L 374.800781 190.867188 L 372.789062 192.4375 L 372.003906 202.199219 L 373.421875 204.242188 L 371.195312 207.851562 L 370.332031 205.128906 L 371.28125 202.722656 L 361.855469 201.335938 L 353.164062 204.894531 L 349.492188 210.886719 L 349.351562 212.300781 L 351.390625 217.324219 L 353.996094 217.875 L 352.503906 220.203125 L 352.148438 221.617188 L 349.125 231.21875 L 345.34375 234.859375 L 343.710938 241.347656 L 342.382812 241.976562 L 338.546875 245.929688 L 331.320312 259.484375 L 326.929688 264.796875 L 318.199219 271.574219 L 313.148438 273.222656 L 311.921875 267.882812 L 309.441406 266.578125 L 305.773438 268.171875 L 304.191406 265.976562 L 305.558594 263.359375 L 304.785156 262.101562 L 303.433594 262.886719 L 303.015625 265.503906 L 300.355469 265.320312 L 299.722656 262.492188 L 302.761719 259.640625 L 304.949219 258.4375 L 304.179688 257.234375 L 305.265625 256.238281 L 310.417969 248.128906 L 312.632812 238.863281 L 311.769531 230.4375 L 306.34375 223.894531 L 298.875 221.09375 L 292.664062 215.570312 L 287.222656 213.714844 L 281.84375 209.578125 L 280.375 205.601562 L 281.78125 201.78125 L 290.96875 196.546875 L 293.675781 196.859375 L 298.484375 192.125 L 299.722656 179.589844 L 301.332031 177.234375 L 300.773438 171.738281 L 304.433594 172.652344 L 304.078125 171.34375 L 305.445312 171.761719 L 304.140625 169.667969 L 303.152344 170.558594 L 303.230469 169.144531 L 305.214844 167.523438 L 302.976562 166.371094 L 302.925781 163.597656 L 306.898438 162.472656 L 306.925781 161.058594 L 304.683594 162.5 L 301.355469 151.613281 L 302.761719 149.363281 L 301.671875 150.148438 L 297.75 140.832031 L 299.09375 140.464844 L 300.382812 140.570312 L 301.355469 144.964844 L 302.394531 144.207031 L 301.332031 143.394531 L 304.886719 141.222656 L 306.230469 141.328125 L 302.632812 139.285156 L 303.886719 137.351562 L 301.253906 137.246094 L 297.296875 140.464844 L 295.511719 135.28125 L 290.347656 125.46875 L 289.664062 122.90625 L 290.890625 122.25 L 294.117188 126.28125 L 293.535156 127.484375 L 295.6875 128.949219 L 295.144531 120.628906 L 294.269531 121.675781 L 291.789062 121.097656 L 291.878906 119.738281 L 295.257812 118.117188 L 293.105469 118.902344 L 292.003906 118.273438 L 292.539062 117.066406 L 293.535156 117.957031 L 292.96875 116.703125 L 294.664062 114.53125 L 292.917969 116.492188 L 291.019531 114.609375 L 291.726562 113.507812 L 290.5 113.667969 L 291.675781 115.96875 L 291.5 117.328125 L 288.613281 114.554688 L 286.285156 113.847656 L 289.804688 120 L 289.082031 121.125 L 286.515625 121.074219 L 286.03125 118.246094 L 272.238281 97.074219 L 273.46875 92.992188 L 275.960938 92.835938 L 276 91.421875 L 277.125 90.875 L 275.503906 88.699219 L 275.464844 91.527344 L 273.175781 92.207031 L 271.632812 95.738281 L 269.078125 92.179688 L 269.507812 89.5625 L 268.683594 90.613281 L 267.660156 89.824219 L 268.191406 88.257812 L 266.976562 88.621094 L 265.191406 86.476562 L 267.242188 84.960938 L 267.519531 82.183594 L 264.535156 75.90625 L 257.371094 66.613281 L 256.675781 63.734375 "/>
<path style="fill:none;stroke-width:0.75;stroke-linecap:round;stroke-linejoin:round;stroke:rgb(0%,0%,0%);stroke-opacity:1;stroke-miterlimit:10;" d="M 255.523438 240.695312 L 258.660156 240.800781 L 256.714844 242.472656 L 255.816406 244.988281 L 258.953125 249.539062 L 261.421875 249.75 L 263.738281 249.382812 L 264.785156 253.257812 L 263.621094 257.128906 L 263.835938 259.695312 L 267.710938 264.5625 L 272.023438 259.957031 L 274.503906 259.171875 L 276.125 257.078125 L 278.085938 258.332031 L 280.238281 256.660156 L 278.859375 256.660156 L 281.414062 253.703125 L 282.222656 254.851562 L 284.222656 252.601562 L 285.640625 252.445312 L 282.855469 255.636719 L 281.742188 254.90625 L 280.65625 255.769531 L 280.566406 258.386719 L 282.769531 257.46875 L 281.363281 259.535156 L 282.640625 260.324219 L 281.238281 262.519531 L 279.921875 262.675781 L 282.402344 262.625 L 287.449219 260.714844 L 286.285156 259.878906 L 283.820312 260.898438 L 282.792969 259.800781 L 284.363281 257.628906 L 284.742188 258.933594 L 286.347656 256.738281 L 285.03125 256.476562 L 285.84375 254.226562 L 286.070312 255.53125 L 288.765625 255.792969 L 288.878906 254.488281 L 289.941406 255.324219 L 289.410156 256.527344 L 290.472656 257.367188 L 291.703125 256.527344 L 290.550781 259.039062 L 289.742188 257.835938 L 289.878906 260.609375 L 284.996094 262.992188 L 288.957031 261.917969 L 289.816406 262.964844 L 292.601562 261.5 L 288.894531 265.425781 L 289.410156 264.167969 L 286.792969 266.761719 L 286.5 269.378906 L 289.195312 272.464844 L 289.398438 275.5 L 291.082031 277.59375 L 284.335938 286.910156 L 282.605469 290.628906 L 278.882812 294.972656 L 279.328125 296.277344 L 277.921875 296.015625 L 274.984375 298.660156 L 269.824219 310.699219 L 265.699219 314.414062 L 258.890625 317.34375 L 256.992188 322.660156 L 257.09375 325.796875 L 258.613281 329.878906 L 255.964844 330.929688 L 256.132812 332.289062 L 258.546875 331.085938 L 259.320312 332.183594 L 259.976562 331.035156 L 261.242188 331.554688 L 260.964844 333.074219 L 261.574219 331.871094 L 265.75 333.492188 L 265.863281 336.421875 L 264.105469 338.515625 L 262.722656 338.359375 L 262.671875 335.742188 L 261.625 336.632812 L 261.902344 339.25 L 254.890625 337.261719 L 250.589844 337.992188 L 254.675781 336.476562 L 252.550781 334.382812 L 249.84375 335.429688 L 249.160156 338.203125 L 246.121094 339.25 L 245.25 338.253906 L 245.503906 339.355469 L 228.964844 348.855469 L 224.875 352.9375 L 223.941406 356.863281 L 222.574219 360.761719 L 222.496094 369.292969 L 216.09375 379.394531 L 215.398438 381.957031 L 216.15625 383.164062 L 215.105469 384.15625 L 215.324219 385.519531 L 209.5 393.550781 L 212.285156 393.789062 L 209.324219 397.058594 L 213.007812 394.46875 L 213.488281 397.1875 L 203.730469 399.9375 L 201.351562 403.601562 L 199.125 407.054688 L 192.140625 412.8125 L 191.570312 415.300781 L 188.609375 415.613281 L 190.152344 415.875 L 186.863281 418.179688 L 185.421875 418.074219 L 179.878906 421.058594 L 178.09375 421.003906 L 176.488281 421.632812 L 171.714844 421.476562 L 170.085938 419.121094 L 165.679688 419.695312 L 167.097656 419.121094 L 165.679688 418.753906 L 164.960938 419.957031 L 161.921875 420.457031 L 163.339844 419.984375 L 159.289062 418.988281 L 159.734375 420.246094 L 157.59375 418.308594 L 159.039062 418.464844 L 160.519531 416.109375 L 158.949219 416.265625 L 155.230469 413.285156 L 152.898438 414.4375 L 148.382812 414.539062 L 145.992188 413.285156 L 146.546875 412.027344 L 145.484375 410.773438 L 140.257812 408.363281 L 137.410156 411.609375 L 122.355469 410.535156 L 122.429688 409.070312 L 123.859375 408.390625 L 125.898438 404.78125 L 124.515625 405.460938 L 124.933594 406.714844 L 120.695312 407.867188 L 121.847656 405.199219 L 124.695312 404.097656 L 123.277344 403.941406 L 123.238281 402.476562 L 118.292969 405.824219 L 118.179688 404.464844 L 118.164062 400.226562 L 128.175781 397.214844 L 125.0625 396.953125 L 124.882812 395.59375 L 127.945312 394.492188 L 125.097656 395.175781 L 124.328125 394.074219 L 125.441406 393.082031 L 129.679688 392.085938 L 128.277344 391.929688 L 129.390625 390.832031 L 123.175781 392.976562 L 124.882812 387.636719 L 127.542969 388.476562 L 127.3125 387.167969 L 125.832031 387.0625 L 126.695312 384.289062 L 130.832031 385.703125 L 130.832031 387.113281 L 129.425781 387.585938 L 130.972656 387.53125 L 130.972656 386.066406 L 132.855469 388.003906 L 132.136719 389.261719 L 133.5 388.578125 L 130.921875 385.335938 L 131.589844 384.078125 L 134.082031 384.707031 L 133.453125 383.503906 L 130.539062 383.714844 L 130.199219 379.472656 L 131.628906 379.316406 L 131.273438 378.113281 L 132.703125 377.902344 L 133.273438 379.160156 L 134.730469 378.636719 L 132.554688 376.960938 L 133.855469 376.121094 L 135.347656 376.488281 L 133.945312 375.757812 L 137.425781 371.152344 L 138.523438 372.144531 L 138.816406 374.972656 L 140.054688 374.238281 L 138.890625 373.246094 L 138.273438 370.3125 L 140.539062 368.507812 L 141.789062 369.03125 L 142.117188 371.542969 L 141.902344 367.566406 L 143.320312 367.25 L 143.144531 365.941406 L 146.699219 363.167969 L 149.292969 363.535156 L 148.671875 361.964844 L 149.40625 359.402344 L 152.40625 356.363281 L 152.546875 355.058594 L 155.089844 353.957031 L 153.988281 353.015625 L 156.175781 350.921875 L 160.683594 345.191406 L 166.210938 343.410156 L 167.425781 344.40625 L 168.820312 344.25 L 180.054688 335.664062 L 189.546875 331.085938 L 191.949219 327.316406 L 196.164062 324.804688 L 197.582031 325.015625 L 197.46875 323.652344 L 202.578125 318.96875 L 201.25 319.519531 L 202.476562 318.761719 L 202.453125 317.605469 L 203.679688 316.875 L 205.046875 316.925781 L 205.578125 315.671875 L 212.210938 312.058594 L 220.269531 303.476562 L 224.558594 295.179688 L 228.847656 281.257812 L 229.332031 277.175781 L 236.023438 275.238281 L 242.945312 265.6875 L 243.957031 251.398438 L 250.945312 244.304688 L 254.980469 243.3125 L 253.675781 242.894531 L 255.523438 240.695312 "/>
<path style="fill:none;stroke-width:0.75;stroke-linecap:round;stroke-linejoin:round;stroke:rgb(0%,0%,0%);stroke-opacity:1;stroke-miterlimit:10;" d="M 150.269531 423.597656 L 147.117188 423.910156 L 146.269531 426.578125 L 147.242188 430.714844 L 143.347656 435.164062 L 143.042969 437.859375 L 140.222656 440.945312 L 144.738281 440.238281 L 143.359375 439.792969 L 145.246094 437.515625 L 149.789062 437.410156 L 151.140625 436.472656 L 152.316406 435.582031 L 155.304688 435.6875 L 154.128906 434.902344 L 155.621094 435.265625 L 157.164062 434.902344 L 156.0625 434.0625 L 157.226562 433.121094 L 156.722656 430.398438 L 154.152344 432.023438 L 155.328125 431.027344 L 153.773438 430.765625 L 151.152344 431.496094 L 152.558594 428.988281 L 153.546875 429.929688 L 155.089844 429.511719 L 155.59375 428.199219 L 152.34375 425.480469 L 150.269531 423.597656 "/>
<path style="fill:none;stroke-width:0.75;stroke-linecap:round;stroke-linejoin:round;stroke:rgb(0%,0%,0%);stroke-opacity:1;stroke-miterlimit:10;" d="M 319.503906 120.835938 L 319.855469 119.371094 L 318.589844 116.910156 L 318.945312 115.605469 L 317.515625 113.507812 L 316.945312 112.148438 L 315.71875 112.464844 L 315.757812 113.824219 L 314.832031 114.714844 L 315.945312 115.605469 L 314.820312 116.285156 L 319.503906 120.835938 "/>
<path style="fill:none;stroke-width:0.75;stroke-linecap:round;stroke-linejoin:round;stroke:rgb(0%,0%,0%);stroke-opacity:1;stroke-miterlimit:10;" d="M 119.429688 396.980469 L 120.304688 395.828125 L 121.542969 398.289062 L 122.480469 397.085938 L 123.644531 397.765625 L 124.023438 395.070312 L 123.566406 393.710938 L 120.644531 394.519531 L 118.140625 397.976562 L 119.429688 396.980469 "/>
<path style="fill:none;stroke-width:0.75;stroke-linecap:round;stroke-linejoin:round;stroke:rgb(0%,0%,0%);stroke-opacity:1;stroke-miterlimit:10;" d="M 309.871094 115.160156 L 309.074219 116.207031 L 309.988281 117.148438 L 309.871094 115.160156 "/>
<path style="fill:none;stroke-width:0.75;stroke-linecap:round;stroke-linejoin:round;stroke:rgb(0%,0%,0%);stroke-opacity:1;stroke-miterlimit:10;" d="M 283.515625 250.457031 L 284.578125 246.371094 L 283.453125 248.9375 L 282.4375 248.050781 L 281.351562 248.886719 L 280.617188 252.757812 L 283.515625 250.457031 "/>
<path style="fill:none;stroke-width:0.75;stroke-linecap:round;stroke-linejoin:round;stroke:rgb(0%,0%,0%);stroke-opacity:1;stroke-miterlimit:10;" d="M 291.320312 260.925781 L 289.941406 261.394531 L 291.171875 262.074219 L 293.6875 260.925781 L 294.042969 259.457031 L 294.257812 258.148438 L 293.03125 258.777344 L 293.105469 260.296875 L 291.320312 260.925781 "/>
<path style="fill:none;stroke-width:0.75;stroke-linecap:round;stroke-linejoin:round;stroke:rgb(0%,0%,0%);stroke-opacity:1;stroke-miterlimit:10;" d="M 307.875 132.613281 L 310.960938 134.96875 L 311.570312 133.6875 L 312.390625 132.640625 L 307.875 132.613281 "/>
<path style="fill:none;stroke-width:0.75;stroke-linecap:round;stroke-linejoin:round;stroke:rgb(0%,0%,0%);stroke-opacity:1;stroke-miterlimit:10;" d="M 333.410156 158.808594 L 330.132812 154.464844 L 330.371094 155.929688 L 331.652344 158.234375 L 333.410156 158.808594 "/>
<path style="fill:none;stroke-width:0.75;stroke-linecap:round;stroke-linejoin:round;stroke:rgb(0%,0%,0%);stroke-opacity:1;stroke-miterlimit:10;" d="M 130.324219 384.289062 L 129.617188 380.46875 L 128.300781 381.355469 L 127.628906 382.613281 L 129.691406 384.394531 L 130.324219 384.289062 "/>
<path style="fill:none;stroke-width:0.75;stroke-linecap:round;stroke-linejoin:round;stroke:rgb(0%,0%,0%);stroke-opacity:1;stroke-miterlimit:10;" d="M 125.097656 397.792969 L 122.1875 398.65625 L 123.746094 398.605469 L 125.097656 397.792969 "/>
<path style="fill:none;stroke-width:0.75;stroke-linecap:round;stroke-linejoin:round;stroke:rgb(0%,0%,0%);stroke-opacity:1;stroke-miterlimit:10;" d="M 305.214844 123.296875 L 304.796875 121.9375 L 303.773438 122.667969 L 305.214844 123.296875 "/>
<path style="fill:none;stroke-width:0.75;stroke-linecap:round;stroke-linejoin:round;stroke:rgb(0%,0%,0%);stroke-opacity:1;stroke-miterlimit:10;" d="M 304.265625 133.582031 L 305.558594 133.398438 L 304.75 132.378906 L 304.265625 133.582031 "/>
<path style="fill:none;stroke-width:0.75;stroke-linecap:round;stroke-linejoin:round;stroke:rgb(0%,0%,0%);stroke-opacity:1;stroke-miterlimit:10;" d="M 312.136719 136.589844 L 312.25 135.152344 L 311.835938 136.382812 L 312.136719 136.589844 "/>
<path style="fill:none;stroke-width:0.75;stroke-linecap:round;stroke-linejoin:round;stroke:rgb(0%,0%,0%);stroke-opacity:1;stroke-miterlimit:10;" d="M 305.824219 132.714844 L 306.660156 131.746094 L 305.824219 130.695312 L 305.824219 132.714844 "/>
<path style="fill:none;stroke-width:0.75;stroke-linecap:round;stroke-linejoin:round;stroke:rgb(0%,0%,0%);stroke-opacity:1;stroke-miterlimit:10;" d="M 305.796875 250.402344 L 304.9375 251.710938 L 306.242188 251.136719 L 305.796875 250.402344 "/>
<path style="fill:none;stroke-width:0.75;stroke-linecap:round;stroke-linejoin:round;stroke:rgb(0%,0%,0%);stroke-opacity:1;stroke-miterlimit:10;" d="M 266.066406 262.3125 L 267.28125 263.148438 L 266.117188 262.363281 L 266.066406 262.3125 "/>
<path style="fill:none;stroke-width:0.75;stroke-linecap:round;stroke-linejoin:round;stroke:rgb(0%,0%,0%);stroke-opacity:1;stroke-miterlimit:10;" d="M 143.789062 425.636719 L 144.15625 426.894531 L 144.613281 425.53125 L 143.789062 425.636719 "/>
<path style="fill:none;stroke-width:0.75;stroke-linecap:round;stroke-linejoin:round;stroke:rgb(0%,0%,0%);stroke-opacity:1;stroke-miterlimit:10;" d="M 164.226562 424.277344 L 163.175781 425.375 L 164.542969 424.851562 L 164.226562 424.277344 "/>
<path style="fill:none;stroke-width:0.75;stroke-linecap:round;stroke-linejoin:round;stroke:rgb(0%,0%,0%);stroke-opacity:1;stroke-miterlimit:10;" d="M 121.707031 409.332031 L 122.769531 408.339844 L 121.605469 409.226562 L 121.707031 409.332031 "/>
<path style="fill:none;stroke-width:0.75;stroke-linecap:round;stroke-linejoin:round;stroke:rgb(0%,0%,0%);stroke-opacity:1;stroke-miterlimit:10;" d="M 119.011719 398.394531 L 120.558594 398.445312 L 119.074219 398.339844 L 119.011719 398.394531 "/>
</g>
</svg>
